<svg width="18" height="17" viewBox="0 0 18 17" fill="none" xmlns="http://www.w3.org/2000/svg">
<path d="M7.11243 3.00833C7.5458 1.51021 7.76249 0.761154 8.09651 0.571816C8.38489 0.408353 8.73792 0.408353 9.02629 0.571816C9.36032 0.761154 9.57701 1.51021 10.0104 3.00833L10.5761 4.96408C10.6927 5.36703 10.751 5.5685 10.8698 5.716C10.9746 5.84614 11.1122 5.94608 11.2684 6.00557C11.4454 6.073 11.655 6.06617 12.0742 6.05251L14.1091 5.98622C15.6678 5.93544 16.4472 5.91005 16.7305 6.16921C16.975 6.39296 17.0841 6.72872 17.0178 7.05349C16.9409 7.42967 16.2955 7.86723 15.0046 8.74234L13.3194 9.88476C12.9722 10.1201 12.7986 10.2378 12.695 10.3964C12.6037 10.5363 12.5511 10.698 12.5428 10.865C12.5334 11.0541 12.6046 11.2514 12.7472 11.6459L13.439 13.5607C13.969 15.0274 14.234 15.7608 14.075 16.1103C13.9378 16.412 13.6522 16.6195 13.3228 16.6568C12.9413 16.6999 12.3257 16.2213 11.0945 15.264L9.48728 14.0143C9.15613 13.7569 8.99055 13.6281 8.80773 13.5786C8.64641 13.535 8.47639 13.535 8.31508 13.5786C8.13226 13.6281 7.96668 13.7569 7.63553 14.0143L6.02826 15.264C4.79708 16.2213 4.18149 16.6999 3.79997 16.6568C3.47059 16.6195 3.18498 16.412 3.04776 16.1103C2.88882 15.7608 3.1538 15.0274 3.68377 13.5607L4.37562 11.6459C4.51816 11.2514 4.58943 11.0541 4.58001 10.865C4.57169 10.698 4.51915 10.5363 4.42777 10.3964C4.32421 10.2378 4.1506 10.1201 3.8034 9.88477L2.1182 8.74233C0.827324 7.86723 0.181888 7.42967 0.105036 7.05349C0.0386864 6.72872 0.14778 6.39296 0.392355 6.16921C0.675645 5.91005 1.455 5.93544 3.01371 5.98622L5.04857 6.05251C5.46782 6.06617 5.67744 6.073 5.85444 6.00557C6.01061 5.94608 6.14816 5.84614 6.253 5.716C6.37182 5.5685 6.4301 5.36703 6.54667 4.96408L7.11243 3.00833Z" fill="#CCCCCC"/>
</svg>
